<svg width="1600" height="600" viewBox="0 0 1600 600" fill="none" xmlns="http://www.w3.org/2000/svg">
  <rect width="1600" height="600" fill="#0A8DFF" />

  <g transform="translate(130 70)">
    <!-- Cadeado -->
    <path d="M220 205V150C220 72 278 18 350 18C422 18 480 72 480 150V205H442V150C442 95 404 58 350 58C296 58 258 95 258 150V205H220Z" fill="white"/>
    <path d="M220 205H510V360C510 436 455 490 380 490H320C245 490 190 436 190 360V205H220ZM278 205H452V360C452 400 420 432 380 432H320C280 432 248 400 248 360V205H278Z" fill="white"/>
    <circle cx="350" cy="290" r="38" fill="#0A8DFF"/>
    <rect x="337" y="290" width="26" height="66" rx="13" fill="#0A8DFF"/>

    <!-- Texto -->
    <g transform="translate(610 0)">
      <text x="0" y="315" fill="white" font-family="Arial Black, Impact, sans-serif" font-size="290" font-weight="900" letter-spacing="-18">2AN</text>
    </g>
  </g>
</svg>
